<svg id="Calque_1" data-name="Calque 1" xmlns="http://www.w3.org/2000/svg" xmlns:xlink="http://www.w3.org/1999/xlink" viewBox="0 0 1260.95 997.79"><defs><style>.cls-1{fill:none;}.cls-2{fill:#fff;}.cls-3{opacity:0.3;}.cls-4{clip-path:url(#clip-path);}.cls-5{opacity:0.6;}.cls-6{clip-path:url(#clip-path-2);}</style><clipPath id="clip-path"><rect class="cls-1" x="19.92" y="15.76" width="1221.11" height="462.31"/></clipPath><clipPath id="clip-path-2"><rect class="cls-1" x="19.92" y="154.93" width="1221.11" height="462.3"/></clipPath></defs><title>LOGO-APPPlan de travail 18</title><path class="cls-2" d="M84.1,958.41c1.41-3.67,2.68-7.06,4-10.45,6.5-17,13.14-34,19.63-51.13a2.18,2.18,0,0,1,2.41-1.69h25.56v86.43H115.73v-60.3a.51.51,0,0,1-.42-.14c-1.13,2.82-2.26,5.79-3.39,8.61-6.5,16.81-13.13,33.61-19.63,50.42A1.83,1.83,0,0,1,90,981.57c-4.1,0-8.19-.14-12.29,0a2,2,0,0,1-2.26-1.69c-7.48-19.35-15-38.7-22.31-57.91-.14-.14-.14-.42-.57-.56v60H32.55V895.28c.56,0,1.13-.14,1.69-.14H57.69a2.15,2.15,0,0,1,2.4,1.55c7.77,20.2,15.53,40.25,23.3,60.45A10.3,10.3,0,0,1,84.1,958.41Z"/><path class="cls-2" d="M1044.21,956.15V895.56h19.35v86.3c-.71,0-1.27.14-2,.14h-18.36a3.44,3.44,0,0,1-3.39-2q-16.3-28.82-32.62-57.48l-1.13-1.7v61H986.87v-86.3c.71,0,1.27-.14,2-.14h18.5a2.93,2.93,0,0,1,3,1.7q16.53,29.45,33,58.61c.14.14.29.42.43.56A1.08,1.08,0,0,1,1044.21,956.15Z"/><path class="cls-2" d="M1226.26,923.1h-16.1a39.22,39.22,0,0,0-2.26-6.21,12.47,12.47,0,0,0-6.78-5.51c-6.07-2.26-12-2.26-17.79.71-4.81,2.4-6.5,7.48-4.1,11.58,1.55,2.68,4.24,3.67,7.06,4.23,4.8,1,9.61,1.7,14.41,2.41,6.35,1,12.57,2.11,18.08,5.36,6.35,3.82,9.32,9.47,9.6,16.81s-1.69,13.7-6.64,19.07a29.35,29.35,0,0,1-15.11,8.75c-10.17,2.69-20.34,2.4-30.08-2-9.47-4.24-15.68-11.3-17.37-21.75-.15-1-.15-2-.29-3a2.43,2.43,0,0,1,.14-1h16.67c.71,2.12,1,4.24,2,6.07a14.42,14.42,0,0,0,8.9,7.35c6.35,2.12,12.71,2.26,18.64-1.41,4.24-2.69,5.79-8,3.67-11.87a9.17,9.17,0,0,0-6.21-4.24c-4-1-8-1.55-12.15-2.25-6.78-1-13.56-2-19.77-5.09-7.21-3.67-10.6-9.74-10.88-17.65-.28-8.34,2.4-15.12,8.9-20.48a32.72,32.72,0,0,1,17.09-7.06c9-1.28,17.79-.43,26,3.81,9.18,4.8,14.4,12.29,15,22.74C1226.26,922.54,1226.26,922.82,1226.26,923.1Z"/><path class="cls-2" d="M428.85,981.57l7.2-21.61c4.95-14.68,9.89-29.51,14.83-44.2l6.36-19.07a1.86,1.86,0,0,1,2-1.55h26.83c1.41,0,1.7.56,2.12,1.69,9.18,27.4,18.22,54.8,27.4,82.2.28.71.56,1.56.85,2.54H496.36c-1.27,0-1.83-.42-2.12-1.55-1.13-3.67-2.54-7.34-3.67-11.16-.42-1.27-1-1.55-2.26-1.55H456.39a1.75,1.75,0,0,0-2,1.41c-1.13,3.81-2.55,7.63-3.82,11.44a2.07,2.07,0,0,1-1.41,1.27c-6.64.14-13.28,0-19.91,0C429.28,981.86,429.13,981.72,428.85,981.57Zm30.37-28.81h26.83c-4.52-13.13-8.9-26.13-13.42-39.54C468.11,926.63,463.74,939.63,459.22,952.76Z"/><path class="cls-2" d="M589.44,948.67c5.79.84,11.72,1.55,18.07,2.4-.84,2.68-1.41,5.36-2.4,7.77-5.08,11.86-14.54,18.64-26.83,21.46-11.58,2.83-23,1.7-33.47-4.38-11.87-6.77-18.37-17.23-20.34-30.5A46.14,46.14,0,0,1,528,919.29a39.29,39.29,0,0,1,25.7-22c13.28-3.82,26-2.4,37.71,5.22A35.35,35.35,0,0,1,607,924.8c.14.56.14,1.13.28,2-5.93.7-11.86,1.41-17.65,2-1-2.12-1.84-4.38-3-6.35-7.91-12.86-24.72-13.7-34.6-5.09-7.2,6.36-9.32,14.55-8.76,23.73a26.46,26.46,0,0,0,6.64,16.52,23.12,23.12,0,0,0,15.68,7.63c10.31.85,20.62-5.79,23.58-16A1.62,1.62,0,0,0,589.44,948.67Z"/><path class="cls-2" d="M297.79,981.86H278.15V895.42h2.12c12.43,0,25-.14,37.43,0,9.46.14,17.94,3.11,24.86,9.75A27.53,27.53,0,0,1,351,923.24c.71,8.62-1.41,16.39-7.34,22.88a31.39,31.39,0,0,1-19.63,10.17c-5.65.71-11.3.71-16.95,1a69.36,69.36,0,0,1-7.63,0c-1.41,0-1.69.43-1.69,1.7v22.88Zm.14-71a3.15,3.15,0,0,0-.14,1v28.67c0,1.13.56,1.42,1.55,1.42h12.85c4.1-.14,8.05-.85,11.44-3.11,4.66-3,7.35-7.2,6.92-12.71-.42-7.06-4.8-12-11.72-13.84C311.91,910.11,305,911.24,297.93,910.82Z"/><path class="cls-2" d="M760.61,930.16h35.88v14.69H760.61v20.62h42.23v16.39H740.7V895.42h60.73v16.24H760.61Z"/><path class="cls-2" d="M645.65,930.16h36v14.69h-36v20.62h42.08v16.39H625.87V895.42H686.6V911.8h-41Z"/><path class="cls-2" d="M909.33,895.42h60.73V911.8h-41v18.36H965v14.69H929.1v20.62h41.95v16.39H909.19Q909.4,938.86,909.33,895.42Z"/><path class="cls-2" d="M897.33,895.28c-1.84,5.79-3.53,11.16-5.23,16.52-7.2,22.6-14.4,45.06-21.61,67.66-.56,1.69-1.13,2.4-3.1,2.4-9.19-.14-18.22-.14-27.4,0a1.88,1.88,0,0,1-2.12-1.42c-3.82-11.72-7.49-23.58-11.3-35.3-5.09-16-10.31-31.92-15.4-47.88-.14-.57-.28-1.13-.42-1.84.56,0,1-.14,1.41-.14h18.36a1.73,1.73,0,0,1,2,1.41q7.62,24.79,15.25,49.58c2,6.49,4.1,13.13,6.22,20.05,1-3.11,1.83-5.79,2.68-8.47,5.51-17.94,11-35.74,16.53-53.67.84-2.54,1.55-5.23,2.4-7.77.14-.42.84-1.13,1.27-1.13Z"/><path class="cls-2" d="M147.79,895.42h2.12c5.79,0,11.58.14,17.52,0a3.23,3.23,0,0,1,3.24,2c5.65,11.44,11.3,22.74,17,34,.29.56.57,1.13,1,2,1.41-2.82,2.69-5.36,3.82-7.91,4.66-9.74,9.32-19.49,14-29.09a2.24,2.24,0,0,1,1.27-1h21.18a10.19,10.19,0,0,0-.56,1.41c-7.91,14.69-15.68,29.52-23.59,44.21-1.55,3-3.25,6.07-4.8,9.18a9.06,9.06,0,0,0-1,3.81c-.14,8.62,0,17.23,0,25.85v2H178.3v-2c0-7.91-.14-16,0-23.87a16.61,16.61,0,0,0-2-7.77c-9.46-17.23-18.78-34.46-28.1-51.55A7,7,0,0,1,147.79,895.42Z"/><path class="cls-2" d="M1147.74,895.7v16.81h-25.85v69.35h-20.48V912.65h-26V895.7Z"/><path class="cls-2" d="M365.72,895.56h20.2v68.92h36.29v17.24H365.72Z"/><g class="cls-3"><g class="cls-4"><polygon class="cls-2" points="892.39 15.77 624.12 284.03 355.86 15.77 19.92 351.71 19.92 465.37 355.86 129.43 624.12 397.69 892.39 129.43 1241.03 478.07 1241.03 364.41 892.39 15.77"/></g></g><g class="cls-5"><g class="cls-6"><polygon class="cls-2" points="892.39 154.93 624.12 423.19 355.86 154.93 19.92 490.87 19.92 604.53 355.86 268.59 624.12 536.85 892.39 268.59 1241.03 617.23 1241.03 503.57 892.39 154.93"/></g></g><polygon class="cls-2" points="892.39 293.9 624.13 562.17 355.86 293.9 19.92 629.84 19.92 743.5 355.86 407.56 624.13 675.83 892.39 407.56 1241.03 756.21 1241.03 642.55 892.39 293.9"/></svg>