<svg xmlns="http://www.w3.org/2000/svg" width="57" height="57" viewBox="0 0 57 57">
  <g id="Groupe_17023" data-name="Groupe 17023" transform="translate(-20.5 -508)">
    <circle id="Ellipse_7" data-name="Ellipse 7" cx="28.5" cy="28.5" r="28.5" transform="translate(20.5 508)" fill="#fcbd0d"/>
    <g id="Composant_1_22" data-name="Composant 1 – 22" transform="translate(37.735 524.43)">
      <g id="Groupe_34" data-name="Groupe 34" transform="translate(4.755)">
        <g id="Ellipse_1" data-name="Ellipse 1" fill="#fff" stroke="#fff" stroke-width="2">
          <ellipse cx="6.241" cy="5.825" rx="6.241" ry="5.825" stroke="none"/>
          <ellipse cx="6.241" cy="5.825" rx="5.241" ry="4.825" fill="none"/>
        </g>
      </g>
      <g id="Groupe_35" data-name="Groupe 35" transform="translate(0 13.513)">
        <g id="Tracé_70" data-name="Tracé 70" fill="#fff">
          <path d="M 10.99573135375977 9.624916076660156 C 8.235590934753418 9.624916076660156 5.569161415100098 9.35235595703125 3.680131435394287 8.87713623046875 C 1.49238133430481 8.326766014099121 1.000001311302185 7.691936016082764 1.000001311302185 7.512946128845215 C 1.000001311302185 5.846566200256348 1.988971352577209 4.25312614440918 3.784731388092041 3.026156187057495 C 5.697021484375 1.719566226005554 8.257931709289551 0.9999961853027344 10.99573135375977 0.9999961853027344 C 13.73353099822998 0.9999961853027344 16.2944507598877 1.719566226005554 18.20674133300781 3.026156187057495 C 20.00249099731445 4.25312614440918 20.9914608001709 5.846566200256348 20.9914608001709 7.512946128845215 C 20.9914608001709 7.691936016082764 20.49908065795898 8.326766014099121 18.31133079528809 8.87713623046875 C 16.42230224609375 9.35235595703125 13.75587177276611 9.624916076660156 10.99573135375977 9.624916076660156 Z" stroke="none"/>
          <path d="M 10.99573135375977 1.999996185302734 C 8.493990898132324 1.999996185302734 6.071301460266113 2.674965858459473 4.348871231079102 3.851836204528809 C 3.526147842407227 4.413965225219727 2.180587768554688 5.568271160125732 2.01655387878418 7.185441017150879 C 2.304119110107422 7.37595272064209 3.064321517944336 7.764590740203857 4.821201324462891 8.105716705322266 C 6.545541763305664 8.440526008605957 8.738370895385742 8.624916076660156 10.99573135375977 8.624916076660156 C 13.25309181213379 8.624916076660156 15.4459114074707 8.440526008605957 17.17026138305664 8.105716705322266 C 18.9271411895752 7.764590740203857 19.68734359741211 7.37595272064209 19.97490882873535 7.185441017150879 C 19.81087493896484 5.568271160125732 18.4653148651123 4.413965225219727 17.64258193969727 3.851836204528809 C 15.92015075683594 2.674965858459473 13.49747180938721 1.999996185302734 10.99573135375977 1.999996185302734 M 10.99573135375977 -3.814697265625e-06 C 17.06850051879883 -3.814697265625e-06 21.9914608001709 3.363656044006348 21.9914608001709 7.512946128845215 C 21.9914608001709 11.6622371673584 1.9073486328125e-06 11.66223526000977 1.9073486328125e-06 7.512946128845215 C 1.9073486328125e-06 3.363656044006348 4.922950744628906 -3.814697265625e-06 10.99573135375977 -3.814697265625e-06 Z" stroke="none" fill="#fff"/>
        </g>
      </g>
    </g>
  </g>
</svg>
