<svg id="Calque_1" data-name="Calque 1" xmlns="http://www.w3.org/2000/svg" viewBox="0 0 758.02 505.34"><defs><style>.cls-1{fill:#0c9;}.cls-2{fill:#000D8C;}</style></defs><title>LOGOPlan de travail 1_1</title><polygon class="cls-1" points="674 205.27 678.85 320.81 703.45 320.81 708.99 205.27 674 205.27"/><polygon class="cls-1" points="709.63 192.03 711.36 155.93 671.93 155.93 673.45 192.03 709.63 192.03"/><path class="cls-1" d="M542.55,241.11c0-2.24-.15-4.42-.32-6.57-6.33-80.27-101.4-97.25-145.76-51.44a77.92,77.92,0,0,0-19.33,34.73C372.76,232.37,367,275,408.14,307c36,28,89,5.93,97.92-9.33,0,6.38,0,19.56,0,22.76h36.46c0-18.91,0-69.21,0-79.29m-36.5,5.26a53.18,53.18,0,0,1-53.19,52.89c-.6,0-1.2,0-1.79,0-.92,0-1.82-.09-2.72-.16a53.19,53.19,0,1,1,34.06-97.23A47.07,47.07,0,0,1,502,225.19l-.15.2a52.17,52.17,0,0,1,2.87,9,53.26,53.26,0,0,1,1.3,11.65c0,.1,0,.2,0,.3"/><path class="cls-1" d="M268.45,319.82c-5.28.25-76.81-.06-76.81-.06V132.9h77.24C392,135.09,391.46,318,268.45,319.82M248.93,164.41H224.05V301h24.88a68.28,68.28,0,0,0,0-136.56"/><path class="cls-1" d="M146.28,299.2a16.5,16.5,0,1,0,16.5,16.5,16.5,16.5,0,0,0-16.5-16.5"/><path class="cls-1" d="M659.2,192v-35.2s-17.06-2-30.72,0c-38.61,5.74-66,22.64-68.14,69.84-1.35,30.08,1.9,71.81,3.95,93.89h24c-.47-18.54-1-49.52.46-65.84,4.73-54.63,28.06-62.69,62.69-62.69Z"/><path class="cls-2" d="M202.34,355.1a6.12,6.12,0,0,0-3.08-.77H194.9a1.48,1.48,0,0,0-1.06.42,1.44,1.44,0,0,0-.44,1.09v14.75a1.49,1.49,0,0,0,1.5,1.51,1.43,1.43,0,0,0,1.09-.45,1.48,1.48,0,0,0,.42-1.06v-4.4h2.85a6.32,6.32,0,0,0,3.08-.74,5.5,5.5,0,0,0,2.12-2.08,6.07,6.07,0,0,0,.75-3,6.33,6.33,0,0,0-.75-3.11,5.52,5.52,0,0,0-2.12-2.14m-1.5,7.86a3.11,3.11,0,0,1-1.58.39h-2.85v-6.17h2.85a3,3,0,0,1,1.57.4,2.9,2.9,0,0,1,1.06,1.11,3.39,3.39,0,0,1,.39,1.66,3.12,3.12,0,0,1-.38,1.55,2.77,2.77,0,0,1-1.06,1.06"/><path class="cls-2" d="M228.23,356.68a8.52,8.52,0,0,0-2.86-1.9,9.69,9.69,0,0,0-3.63-.67,9.8,9.8,0,0,0-3.65.67,8.42,8.42,0,0,0-2.86,1.9,8.61,8.61,0,0,0-1.86,2.88,9.7,9.7,0,0,0-.66,3.64,9.89,9.89,0,0,0,.66,3.66,8.55,8.55,0,0,0,1.86,2.89,8.16,8.16,0,0,0,2.86,1.89,9.6,9.6,0,0,0,3.65.67,9.46,9.46,0,0,0,3.63-.67,8.35,8.35,0,0,0,2.86-1.89,8.58,8.58,0,0,0,1.87-2.89,9.89,9.89,0,0,0,.66-3.66,9.74,9.74,0,0,0-.66-3.64,8.53,8.53,0,0,0-1.87-2.88m-.4,6.52a6.78,6.78,0,0,1-.45,2.5,5.76,5.76,0,0,1-1.26,2,5.94,5.94,0,0,1-1.93,1.33,6.52,6.52,0,0,1-4.91,0,5.8,5.8,0,0,1-1.92-1.33,6.07,6.07,0,0,1-1.26-2,7,7,0,0,1,0-5,6.18,6.18,0,0,1,1.26-2,5.6,5.6,0,0,1,1.92-1.31,6.65,6.65,0,0,1,4.91,0,5.74,5.74,0,0,1,1.93,1.31,5.86,5.86,0,0,1,1.26,2,6.85,6.85,0,0,1,.45,2.5"/><path class="cls-2" d="M248.72,364.77a5.27,5.27,0,0,0,2-1.87,5.4,5.4,0,0,0,.76-2.83,5.69,5.69,0,0,0-.76-3,5.36,5.36,0,0,0-2.11-2,6.46,6.46,0,0,0-3.08-.73H241.6a1.47,1.47,0,0,0-1.51,1.51v14.75a1.46,1.46,0,0,0,.44,1.07,1.55,1.55,0,0,0,2.16,0,1.48,1.48,0,0,0,.42-1.06v-5h2.61l3.62,5.83a1.43,1.43,0,0,0,.57.55,1.49,1.49,0,0,0,.73.18,1.37,1.37,0,0,0,1.31-.77,1.47,1.47,0,0,0-.12-1.55Zm-.18-4.7a2.39,2.39,0,0,1-.38,1.35,2.48,2.48,0,0,1-1,.93,3.55,3.55,0,0,1-1.6.35h-2.41v-5.52h2.41a3.32,3.32,0,0,1,1.58.36,2.74,2.74,0,0,1,1.06,1,3,3,0,0,1,.38,1.51"/><path class="cls-2" d="M271.61,354.33H260a1.39,1.39,0,0,0-1,.41,1.36,1.36,0,0,0-.4,1,1.38,1.38,0,0,0,1.42,1.43h4.33v13.41a1.46,1.46,0,0,0,.43,1.07,1.52,1.52,0,0,0,2.59-1.07V357.18h4.3a1.38,1.38,0,0,0,1.42-1.43,1.36,1.36,0,0,0-.4-1,1.39,1.39,0,0,0-1-.41"/><path class="cls-2" d="M292.67,357.18a1.47,1.47,0,0,0,1.06-.39,1.34,1.34,0,0,0,.43-1,1.39,1.39,0,0,0-.42-1,1.52,1.52,0,0,0-1.07-.4h-9.84a1.47,1.47,0,0,0-1.51,1.51v14.75a1.49,1.49,0,0,0,1.51,1.51h9.84a1.52,1.52,0,0,0,1.07-.4,1.41,1.41,0,0,0,.42-1.05,1.33,1.33,0,0,0-.43-1,1.51,1.51,0,0,0-1.06-.38h-8.33v-4.69h5.87a1.52,1.52,0,0,0,1.07-.4,1.36,1.36,0,0,0,.42-1,1.38,1.38,0,0,0-.42-1,1.52,1.52,0,0,0-1.07-.4h-5.87v-4.53Z"/><path class="cls-2" d="M313.08,354.33h-9.85a1.46,1.46,0,0,0-1.06.42,1.45,1.45,0,0,0-.45,1.09v14.75a1.51,1.51,0,1,0,3,0v-6h5.88a1.48,1.48,0,0,0,1.06-.4,1.36,1.36,0,0,0,.42-1,1.38,1.38,0,0,0-.42-1,1.48,1.48,0,0,0-1.06-.4h-5.88v-4.53h8.34a1.47,1.47,0,0,0,1.06-.39,1.34,1.34,0,0,0,.43-1,1.43,1.43,0,0,0-.42-1,1.52,1.52,0,0,0-1.07-.4"/><path class="cls-2" d="M334.6,357.18a1.47,1.47,0,0,0,1.06-.39,1.34,1.34,0,0,0,.43-1,1.4,1.4,0,0,0-.43-1,1.48,1.48,0,0,0-1.06-.4h-9.85a1.46,1.46,0,0,0-1.06.42,1.45,1.45,0,0,0-.45,1.09v14.75a1.5,1.5,0,0,0,1.51,1.51h9.85a1.52,1.52,0,0,0,1.07-.4,1.45,1.45,0,0,0,.42-1.05,1.37,1.37,0,0,0-.43-1,1.53,1.53,0,0,0-1.06-.38h-8.34v-4.69h5.88a1.48,1.48,0,0,0,1.06-.4,1.36,1.36,0,0,0,.42-1,1.38,1.38,0,0,0-.42-1,1.48,1.48,0,0,0-1.06-.4h-5.88v-4.53Z"/><path class="cls-2" d="M357.27,354.75a1.48,1.48,0,0,0-.44,1.09V366a3.26,3.26,0,0,1-.54,1.87,3.71,3.71,0,0,1-1.5,1.29,5.23,5.23,0,0,1-2.27.47,5.68,5.68,0,0,1-2.36-.47,3.84,3.84,0,0,1-1.56-1.29A3.15,3.15,0,0,1,348,366V355.84a1.43,1.43,0,0,0-.43-1.08,1.58,1.58,0,0,0-2.15,0,1.48,1.48,0,0,0-.44,1.09V366a6,6,0,0,0,1,3.35,6.4,6.4,0,0,0,2.67,2.27,8.83,8.83,0,0,0,3.86.81,8.41,8.41,0,0,0,3.76-.81,6.35,6.35,0,0,0,2.6-2.28,6,6,0,0,0,.94-3.34V355.84a1.49,1.49,0,0,0-.41-1.08,1.56,1.56,0,0,0-2.14,0"/><path class="cls-2" d="M370.4,354.75a1.48,1.48,0,0,0-.44,1.09v14.75a1.5,1.5,0,0,0,1.51,1.51,1.45,1.45,0,0,0,1.09-.45,1.48,1.48,0,0,0,.42-1.06V355.84a1.43,1.43,0,0,0-.43-1.08,1.58,1.58,0,0,0-2.15,0"/><path class="cls-2" d="M393.62,369.08h-7.51V355.84a1.46,1.46,0,0,0-.44-1.07,1.51,1.51,0,0,0-2.12,0,1.46,1.46,0,0,0-.44,1.07v14.75a1.49,1.49,0,0,0,.43,1.06,1.4,1.4,0,0,0,1.06.45h9a1.5,1.5,0,0,0,1.51-1.51,1.49,1.49,0,0,0-.44-1.08,1.46,1.46,0,0,0-1.07-.43"/><path class="cls-2" d="M414.13,369.08h-7.5V355.84a1.46,1.46,0,0,0-.44-1.07,1.51,1.51,0,0,0-2.12,0,1.46,1.46,0,0,0-.44,1.07v14.75a1.48,1.48,0,0,0,.42,1.06,1.4,1.4,0,0,0,1.07.45h9a1.47,1.47,0,0,0,1.08-.44,1.46,1.46,0,0,0,.43-1.07,1.48,1.48,0,0,0-.43-1.08,1.46,1.46,0,0,0-1.08-.43"/><path class="cls-2" d="M435.5,357.18a1.47,1.47,0,0,0,1.06-.39,1.34,1.34,0,0,0,.43-1,1.39,1.39,0,0,0-.42-1,1.52,1.52,0,0,0-1.07-.4h-9.84a1.47,1.47,0,0,0-1.51,1.51v14.75a1.46,1.46,0,0,0,.43,1.07,1.47,1.47,0,0,0,1.08.44h9.84a1.52,1.52,0,0,0,1.07-.4,1.41,1.41,0,0,0,.42-1.05,1.33,1.33,0,0,0-.43-1,1.51,1.51,0,0,0-1.06-.38h-8.33v-4.69H433a1.52,1.52,0,0,0,1.07-.4,1.36,1.36,0,0,0,.42-1,1.38,1.38,0,0,0-.42-1,1.52,1.52,0,0,0-1.07-.4h-5.87v-4.53Z"/><path class="cls-2" d="M466.65,352.8l2.09-2.1a1.09,1.09,0,0,0,.35-.51,1.6,1.6,0,0,0,.09-.53,1.52,1.52,0,0,0-.41-1.07,1.52,1.52,0,0,0-2.13,0l-2.14,2.15a1.41,1.41,0,0,0-.37,1,1.48,1.48,0,0,0,.43,1.07,1.45,1.45,0,0,0,1.06.42,1.41,1.41,0,0,0,1-.41"/><path class="cls-2" d="M470.2,357.18a1.49,1.49,0,0,0,1.06-.39,1.34,1.34,0,0,0,.42-1,1.39,1.39,0,0,0-.42-1,1.48,1.48,0,0,0-1.06-.4h-9.85a1.47,1.47,0,0,0-1.51,1.51v14.75a1.5,1.5,0,0,0,1.51,1.51h9.85a1.48,1.48,0,0,0,1.06-.4,1.41,1.41,0,0,0,.42-1.05,1.36,1.36,0,0,0-.42-1,1.53,1.53,0,0,0-1.06-.38h-8.34v-4.69h5.87a1.49,1.49,0,0,0,1.07-.4,1.36,1.36,0,0,0,.42-1,1.38,1.38,0,0,0-.42-1,1.49,1.49,0,0,0-1.07-.4h-5.87v-4.53Z"/><path class="cls-2" d="M491.12,369.08h-7.5V355.84a1.46,1.46,0,0,0-.44-1.07,1.51,1.51,0,0,0-2.12,0,1.46,1.46,0,0,0-.44,1.07v14.75a1.48,1.48,0,0,0,.42,1.06,1.4,1.4,0,0,0,1.07.45h9a1.47,1.47,0,0,0,1.08-.44,1.46,1.46,0,0,0,.43-1.07,1.48,1.48,0,0,0-.43-1.08,1.46,1.46,0,0,0-1.08-.43"/><path class="cls-2" d="M512.49,357.18a1.47,1.47,0,0,0,1.06-.39,1.34,1.34,0,0,0,.43-1,1.39,1.39,0,0,0-.42-1,1.52,1.52,0,0,0-1.07-.4h-9.84a1.47,1.47,0,0,0-1.51,1.51v14.75a1.46,1.46,0,0,0,.43,1.07,1.47,1.47,0,0,0,1.08.44h9.84a1.52,1.52,0,0,0,1.07-.4,1.41,1.41,0,0,0,.42-1.05,1.33,1.33,0,0,0-.43-1,1.51,1.51,0,0,0-1.06-.38h-8.33v-4.69H510a1.52,1.52,0,0,0,1.07-.4,1.36,1.36,0,0,0,.42-1,1.38,1.38,0,0,0-.42-1,1.52,1.52,0,0,0-1.07-.4h-5.87v-4.53Z"/><path class="cls-2" d="M526.78,358.76a6,6,0,0,1,1.88-1.36,5.38,5.38,0,0,1,2.25-.48,5.63,5.63,0,0,1,2.13.33,6.37,6.37,0,0,1,1.59,1,1.41,1.41,0,0,0,1.06.35,1.49,1.49,0,0,0,.94-.4,1.27,1.27,0,0,0,.41-1,1.85,1.85,0,0,0,0-.43,1.17,1.17,0,0,0-.19-.41,1.87,1.87,0,0,0-.34-.35,8.9,8.9,0,0,0-2.54-1.5,9.09,9.09,0,0,0-3-.46,8.5,8.5,0,0,0-3.46.71,8.74,8.74,0,0,0-2.78,1.95,9,9,0,0,0-1.87,2.88,9.46,9.46,0,0,0-.67,3.55,9.63,9.63,0,0,0,.67,3.59,8.94,8.94,0,0,0,1.87,2.89,8.43,8.43,0,0,0,2.8,1.94,8.59,8.59,0,0,0,3.44.69,8.79,8.79,0,0,0,3-.5,9.32,9.32,0,0,0,2.66-1.5,1.64,1.64,0,0,0,.34-.5,1.53,1.53,0,0,0-.25-1.59,1.33,1.33,0,0,0-.88-.42,1.49,1.49,0,0,0-1,.33,7.94,7.94,0,0,1-1.82,1,5.63,5.63,0,0,1-4.23-.12,6,6,0,0,1-1.87-1.34,6.28,6.28,0,0,1-1.26-2,6.7,6.7,0,0,1-.46-2.47,6.62,6.62,0,0,1,.46-2.44,6.18,6.18,0,0,1,1.26-2"/><path class="cls-2" d="M557.6,354.33H545.94a1.4,1.4,0,0,0-1.42,1.42,1.4,1.4,0,0,0,1.42,1.43h4.33v13.41a1.51,1.51,0,1,0,3,0V357.18h4.31a1.4,1.4,0,0,0,1.42-1.43,1.4,1.4,0,0,0-1.42-1.42"/><path class="cls-2" d="M575.93,364.77a5.17,5.17,0,0,0,2.75-4.7,5.69,5.69,0,0,0-.76-3,5.36,5.36,0,0,0-2.11-2,6.46,6.46,0,0,0-3.08-.73h-3.92a1.47,1.47,0,0,0-1.51,1.51v14.75a1.46,1.46,0,0,0,.44,1.07,1.55,1.55,0,0,0,2.16,0,1.48,1.48,0,0,0,.42-1.06v-5h2.61l3.62,5.83a1.43,1.43,0,0,0,.57.55,1.49,1.49,0,0,0,.73.18,1.38,1.38,0,0,0,1.32-.77,1.5,1.5,0,0,0-.13-1.55Zm-.18-4.7a2.47,2.47,0,0,1-.37,1.35,2.56,2.56,0,0,1-1,.93,3.52,3.52,0,0,1-1.6.35h-2.41v-5.52h2.41a3.36,3.36,0,0,1,1.59.36,2.71,2.71,0,0,1,1,1,3,3,0,0,1,.38,1.51"/><path class="cls-2" d="M602.34,356.68a8.73,8.73,0,0,0-2.86-1.9,10.25,10.25,0,0,0-7.29,0,8.52,8.52,0,0,0-2.86,1.9,8.76,8.76,0,0,0-1.86,2.88,9.91,9.91,0,0,0-.65,3.64,10.09,10.09,0,0,0,.65,3.66,8.71,8.71,0,0,0,1.86,2.89,8.35,8.35,0,0,0,2.86,1.89,10.25,10.25,0,0,0,7.29,0,8.55,8.55,0,0,0,2.86-1.89,8.4,8.4,0,0,0,1.86-2.89,9.89,9.89,0,0,0,.66-3.66,9.74,9.74,0,0,0-.66-3.64,8.36,8.36,0,0,0-1.86-2.88m-.41,6.52a7,7,0,0,1-.44,2.5,5.91,5.91,0,0,1-1.26,2,6.1,6.1,0,0,1-1.94,1.33,6.49,6.49,0,0,1-4.9,0,5.84,5.84,0,0,1-1.93-1.33,6.24,6.24,0,0,1-1.26-2,7.17,7.17,0,0,1,0-5,6.35,6.35,0,0,1,1.26-2,5.7,5.7,0,0,1,1.92-1.31,6.65,6.65,0,0,1,4.91,0,5.69,5.69,0,0,1,1.94,1.31,6,6,0,0,1,1.26,2,7.06,7.06,0,0,1,.44,2.5"/><path class="cls-2" d="M626.11,354.75a1.48,1.48,0,0,0-.44,1.09v10.79l-8.83-11.75a1.53,1.53,0,0,0-2.22-.12,1.47,1.47,0,0,0-.43,1.08v14.75a1.52,1.52,0,0,0,.42,1.06,1.54,1.54,0,0,0,2.16,0,1.48,1.48,0,0,0,.42-1.06V359.82L626,371.56a1.3,1.3,0,0,0,.56.41,1.76,1.76,0,0,0,.61.13,1.41,1.41,0,0,0,1.08-.45,1.51,1.51,0,0,0,.41-1.06V355.84a1.53,1.53,0,0,0-.41-1.08,1.58,1.58,0,0,0-2.15,0"/><path class="cls-2" d="M639.25,354.75a1.45,1.45,0,0,0-.45,1.09v14.75a1.5,1.5,0,0,0,1.51,1.51,1.43,1.43,0,0,0,1.09-.45,1.48,1.48,0,0,0,.42-1.06V355.84a1.46,1.46,0,0,0-.42-1.08,1.58,1.58,0,0,0-2.15,0"/><path class="cls-2" d="M666.69,356.68a8.58,8.58,0,0,0-2.85-1.9,10.25,10.25,0,0,0-7.29,0,8.42,8.42,0,0,0-2.86,1.9,8.61,8.61,0,0,0-1.86,2.88,9.91,9.91,0,0,0-.66,3.64,10.09,10.09,0,0,0,.66,3.66,8.55,8.55,0,0,0,1.86,2.89,8.26,8.26,0,0,0,2.86,1.89,10.25,10.25,0,0,0,7.29,0,8.17,8.17,0,0,0,1.35-.69l.69.69a1.48,1.48,0,0,0,2.52-1,1.52,1.52,0,0,0-.44-1l-.6-.6a8.31,8.31,0,0,0,1.2-2.12,9.89,9.89,0,0,0,.66-3.66,9.74,9.74,0,0,0-.66-3.64,8.39,8.39,0,0,0-1.87-2.88M663.4,365a1.5,1.5,0,0,0-2.53,1,1.43,1.43,0,0,0,.45,1l1.75,1.75-.42.2a6.52,6.52,0,0,1-4.91,0,5.9,5.9,0,0,1-1.92-1.33,6.07,6.07,0,0,1-1.26-2,7.17,7.17,0,0,1,0-5,6.18,6.18,0,0,1,1.26-2,5.7,5.7,0,0,1,1.92-1.31,6.65,6.65,0,0,1,4.91,0,5.88,5.88,0,0,1,1.94,1.31,6.18,6.18,0,0,1,1.26,2,7.06,7.06,0,0,1,.44,2.5,7,7,0,0,1-.44,2.5,5.53,5.53,0,0,1-.6,1.16Z"/><path class="cls-2" d="M690.8,354.75a1.45,1.45,0,0,0-.45,1.09V366a3.33,3.33,0,0,1-.53,1.87,3.68,3.68,0,0,1-1.51,1.29,5.18,5.18,0,0,1-2.26.47,5.65,5.65,0,0,1-2.36-.47,3.94,3.94,0,0,1-1.57-1.29,3.22,3.22,0,0,1-.55-1.87V355.84a1.43,1.43,0,0,0-.43-1.08,1.58,1.58,0,0,0-2.15,0,1.48,1.48,0,0,0-.44,1.09V366a6,6,0,0,0,1,3.35,6.37,6.37,0,0,0,2.66,2.27,8.84,8.84,0,0,0,3.87.81,8.41,8.41,0,0,0,3.76-.81,6.35,6.35,0,0,0,2.6-2.28,6,6,0,0,0,.94-3.34V355.84a1.53,1.53,0,0,0-.41-1.08,1.56,1.56,0,0,0-2.14,0"/><path class="cls-2" d="M714.84,357.18a1.47,1.47,0,0,0,1.06-.39,1.34,1.34,0,0,0,.43-1,1.39,1.39,0,0,0-.42-1,1.52,1.52,0,0,0-1.07-.4H705a1.47,1.47,0,0,0-1.51,1.51v14.75a1.46,1.46,0,0,0,.43,1.07,1.49,1.49,0,0,0,1.08.44h9.84a1.52,1.52,0,0,0,1.07-.4,1.41,1.41,0,0,0,.42-1.05,1.33,1.33,0,0,0-.43-1,1.51,1.51,0,0,0-1.06-.38h-8.33v-4.69h5.87a1.52,1.52,0,0,0,1.07-.4,1.36,1.36,0,0,0,.42-1,1.38,1.38,0,0,0-.42-1,1.52,1.52,0,0,0-1.07-.4h-5.87v-4.53Z"/><path class="cls-2" d="M65.45,281.89l106.67-10.51V258a70.29,70.29,0,0,0-6.57-29.42c-26.34-54.91-122.72-44.8-123.81,29.72-1.48,32.15,28.61,63.36,58.13,61.52V304a41.6,41.6,0,0,1-34.42-22.15m72.14-30.15-74.71,7.09c.87-43.84,64.73-52.78,74.71-7.09"/></svg>