<?xml version="1.0" encoding="utf-8"?>
<!-- Generator: Adobe Illustrator 22.0.1, SVG Export Plug-In . SVG Version: 6.00 Build 0)  -->
<svg version="1.1" id="Calque_1" xmlns="http://www.w3.org/2000/svg" xmlns:xlink="http://www.w3.org/1999/xlink" x="0px" y="0px"
	 viewBox="0 0 1069 698" style="enable-background:new 0 0 1069 698;" xml:space="preserve">
<style type="text/css">
	.st0{fill:#00024F;}
	.st1{fill:#FEB00A;}
	.st2{fill:#B90B8D;}
</style>
<title>LOGO - NEWPlan de travail 2</title>
<g>
	<g>
		<path class="st0" d="M150.7,674.4c1-2.6,1.9-5,2.8-7.4c4.6-12,9.3-24.1,13.9-36.2c0.3-0.9,0.8-1.2,1.7-1.2c5.6,0,11.3,0,16.9,0
			c0.4,0,0.7,0,1.2,0c0,20.4,0,40.7,0,61.2c-4.7,0-9.3,0-14.1,0c0-14.3,0-28.5,0-42.7c-0.1,0-0.2,0-0.3-0.1c-0.8,2-1.6,4.1-2.4,6.1
			c-4.6,11.9-9.3,23.8-13.9,35.7c-0.3,0.8-0.7,1.1-1.6,1c-2.9,0-5.8-0.1-8.7,0c-0.9,0-1.3-0.3-1.6-1.2c-5.3-13.7-10.6-27.4-15.8-41
			c-0.1-0.1-0.1-0.3-0.4-0.4c0,14.1,0,28.2,0,42.5c-4.8,0-9.4,0-14.2,0c0-20.3,0-40.6,0-61c0.4,0,0.8-0.1,1.2-0.1
			c5.5,0,11.1,0,16.6,0c0.9,0,1.3,0.2,1.7,1.1c5.5,14.3,11,28.5,16.5,42.8C150.4,673.8,150.5,674,150.7,674.4z"/>
		<path class="st0" d="M830.5,672.8c0-14.3,0-28.6,0-42.9c4.6,0,9.1,0,13.7,0c0,20.3,0,40.6,0,61.1c-0.5,0-0.9,0.1-1.4,0.1
			c-4.3,0-8.7,0-13,0c-1.2,0-1.8-0.4-2.4-1.4c-7.7-13.6-15.4-27.2-23.1-40.7c-0.2-0.3-0.4-0.6-0.8-1.2c0,14.6,0,28.8,0,43.2
			c-4.6,0-9.1,0-13.6,0c0-20.3,0-40.7,0-61.1c0.5,0,0.9-0.1,1.4-0.1c4.4,0,8.7,0,13.1,0c1,0,1.6,0.3,2.1,1.2
			c7.8,13.9,15.6,27.7,23.4,41.5c0.1,0.1,0.2,0.3,0.3,0.4C830.4,672.8,830.5,672.8,830.5,672.8z"/>
		<path class="st0" d="M959.4,649.4c-3.9,0-7.7,0-11.4,0c-0.5-1.5-0.9-3.1-1.6-4.4c-1-1.9-2.8-3.1-4.8-3.9
			c-4.3-1.6-8.5-1.6-12.6,0.5c-3.4,1.7-4.6,5.3-2.9,8.2c1.1,1.9,3,2.6,5,3c3.4,0.7,6.8,1.2,10.2,1.7c4.5,0.7,8.9,1.5,12.8,3.8
			c4.5,2.7,6.6,6.7,6.8,11.9c0.2,5.1-1.2,9.7-4.7,13.5c-2.9,3.2-6.6,5.2-10.7,6.2c-7.2,1.9-14.4,1.7-21.3-1.4
			c-6.7-3-11.1-8-12.3-15.4c-0.1-0.7-0.1-1.4-0.2-2.1c0-0.2,0-0.5,0.1-0.7c4,0,7.9,0,11.8,0c0.5,1.5,0.7,3,1.4,4.3
			c1.3,2.6,3.5,4.3,6.3,5.2c4.5,1.5,9,1.6,13.2-1c3-1.9,4.1-5.7,2.6-8.4c-1-1.7-2.6-2.6-4.4-3c-2.8-0.7-5.7-1.1-8.6-1.6
			c-4.8-0.7-9.6-1.4-14-3.6c-5.1-2.6-7.5-6.9-7.7-12.5c-0.2-5.9,1.7-10.7,6.3-14.5c3.5-2.9,7.6-4.4,12.1-5
			c6.4-0.9,12.6-0.3,18.4,2.7c6.5,3.4,10.2,8.7,10.6,16.1C959.4,649,959.4,649.2,959.4,649.4z"/>
		<path class="st0" d="M394.8,690.8c1.7-5.1,3.4-10.2,5.1-15.3c3.5-10.4,7-20.9,10.5-31.3c1.5-4.5,3-9,4.5-13.5
			c0.2-0.7,0.6-1.1,1.4-1.1c6.3,0,12.7,0,19,0c1,0,1.2,0.4,1.5,1.2c6.5,19.4,12.9,38.8,19.4,58.2c0.2,0.5,0.4,1.1,0.6,1.8
			c-1,0-1.9,0-2.8,0c-3.8,0-7.6,0-11.4,0c-0.9,0-1.3-0.3-1.5-1.1c-0.8-2.6-1.8-5.2-2.6-7.9c-0.3-0.9-0.7-1.1-1.6-1.1
			c-7.5,0-15,0-22.6,0c-0.8,0-1.2,0.3-1.4,1c-0.8,2.7-1.8,5.4-2.7,8.1c-0.1,0.4-0.7,0.9-1,0.9c-4.7,0.1-9.4,0-14.1,0
			C395.1,691,395,690.9,394.8,690.8z M416.3,670.4c6.4,0,12.7,0,19,0c-3.2-9.3-6.3-18.5-9.5-28C422.6,651.9,419.5,661.1,416.3,670.4
			z"/>
		<path class="st0" d="M508.5,667.5c4.1,0.6,8.3,1.1,12.8,1.7c-0.6,1.9-1,3.8-1.7,5.5c-3.6,8.4-10.3,13.2-19,15.2
			c-8.2,2-16.3,1.2-23.7-3.1c-8.4-4.8-13-12.2-14.4-21.6c-0.9-6.4-0.2-12.6,2.5-18.5c3.7-7.9,9.8-13.2,18.2-15.6
			c9.4-2.7,18.4-1.7,26.7,3.7c5.7,3.7,9.4,9,11,15.8c0.1,0.4,0.1,0.8,0.2,1.4c-4.2,0.5-8.4,1-12.5,1.4c-0.7-1.5-1.3-3.1-2.1-4.5
			c-5.6-9.1-17.5-9.7-24.5-3.6c-5.1,4.5-6.6,10.3-6.2,16.8c0.3,4.4,1.7,8.4,4.7,11.7c3,3.3,6.7,5,11.1,5.4
			c7.3,0.6,14.6-4.1,16.7-11.3C508.3,667.9,508.4,667.8,508.5,667.5z"/>
		<path class="st0" d="M302,691c-4.7,0-9.3,0-13.9,0c0-20.4,0-40.7,0-61.2c0.5,0,1,0,1.5,0c8.8,0,17.7-0.1,26.5,0
			c6.7,0.1,12.7,2.2,17.6,6.9c3.6,3.5,5.6,7.8,6,12.8c0.5,6.1-1,11.6-5.2,16.2c-3.7,4.1-8.5,6.5-13.9,7.2c-4,0.5-8,0.5-12,0.7
			c-1.8,0.1-3.6,0.1-5.4,0c-1,0-1.2,0.3-1.2,1.2c0,4.8,0,9.7,0,14.5C302,689.9,302,690.4,302,691z M302.1,640.7
			c-0.1,0.4-0.1,0.5-0.1,0.7c0,6.8,0,13.5,0,20.3c0,0.8,0.4,1,1.1,1c3,0,6,0,9.1,0c2.9-0.1,5.7-0.6,8.1-2.2c3.3-2.1,5.2-5.1,4.9-9
			c-0.3-5-3.4-8.5-8.3-9.8C312,640.2,307.1,641,302.1,640.7z"/>
		<path class="st0" d="M629.7,654.4c8.4,0,16.9,0,25.4,0c0,3.5,0,6.9,0,10.4c-8.4,0-16.9,0-25.4,0c0,4.9,0,9.7,0,14.6
			c9.9,0,19.9,0,29.9,0c0,4,0,7.8,0,11.6c-14.7,0-29.3,0-44,0c0-20.4,0-40.8,0-61.2c14.3,0,28.6,0,43,0c0,3.8,0,7.6,0,11.5
			c-9.6,0-19.2,0-28.9,0C629.7,645.7,629.7,650,629.7,654.4z"/>
		<path class="st0" d="M548.3,654.4c8.6,0,17,0,25.5,0c0,3.5,0,6.9,0,10.4c-8.5,0-17,0-25.5,0c0,4.9,0,9.6,0,14.6
			c9.9,0,19.8,0,29.8,0c0,4,0,7.8,0,11.6c-14.6,0-29.2,0-43.8,0c0-20.4,0-40.7,0-61.2c14.3,0,28.6,0,43,0c0,3.9,0,7.7,0,11.6
			c-9.7,0-19.3,0-29,0C548.3,645.7,548.3,650,548.3,654.4z"/>
		<path class="st0" d="M735,629.8c14.4,0,28.7,0,43,0c0,3.9,0,7.7,0,11.6c-9.7,0-19.3,0-29,0c0,4.4,0,8.6,0,13c8.5,0,16.9,0,25.4,0
			c0,3.5,0,6.9,0,10.4c-8.4,0-16.9,0-25.4,0c0,4.9,0,9.7,0,14.6c9.9,0,19.8,0,29.7,0c0,3.9,0,7.7,0,11.6c-14.5,0-29.1,0-43.8,0
			C735,670.7,735,650.3,735,629.8z"/>
		<path class="st0" d="M726.5,629.7c-1.3,4.1-2.5,7.9-3.7,11.7c-5.1,16-10.2,31.9-15.3,47.9c-0.4,1.2-0.8,1.7-2.2,1.7
			c-6.5-0.1-12.9-0.1-19.4,0c-0.8,0-1.2-0.2-1.5-1c-2.7-8.3-5.3-16.7-8-25c-3.6-11.3-7.3-22.6-10.9-33.9c-0.1-0.4-0.2-0.8-0.3-1.3
			c0.4,0,0.7-0.1,1-0.1c4.3,0,8.7,0,13,0c0.8,0,1.1,0.2,1.4,1c3.6,11.7,7.2,23.4,10.8,35.1c1.4,4.6,2.9,9.3,4.4,14.2
			c0.7-2.2,1.3-4.1,1.9-6c3.9-12.7,7.8-25.3,11.7-38c0.6-1.8,1.1-3.7,1.7-5.5c0.1-0.3,0.6-0.8,0.9-0.8
			C716.8,629.7,721.5,629.7,726.5,629.7z"/>
		<path class="st0" d="M195.8,629.8c0.6,0,1,0,1.5,0c4.1,0,8.2,0.1,12.4,0c1.2,0,1.7,0.4,2.3,1.4c4,8.1,8,16.1,12,24.1
			c0.2,0.4,0.4,0.8,0.7,1.4c1-2,1.9-3.8,2.7-5.6c3.3-6.9,6.6-13.8,9.9-20.6c0.1-0.3,0.6-0.6,0.9-0.7c5,0,9.9,0,15,0
			c-0.2,0.4-0.3,0.7-0.4,1c-5.6,10.4-11.1,20.9-16.7,31.3c-1.1,2.1-2.3,4.3-3.4,6.5c-0.4,0.8-0.7,1.8-0.7,2.7
			c-0.1,6.1,0,12.2,0,18.3c0,0.4,0,0.9,0,1.4c-4.9,0-9.7,0-14.6,0c0-0.5,0-1,0-1.4c0-5.6-0.1-11.3,0-16.9c0-2-0.5-3.7-1.4-5.5
			c-6.7-12.2-13.3-24.4-19.9-36.5C196,630.5,195.9,630.2,195.8,629.8z"/>
		<path class="st0" d="M903.8,630c0,4,0,7.9,0,11.9c-6.1,0-12.1,0-18.3,0c0,16.4,0,32.7,0,49.1c-4.9,0-9.7,0-14.5,0
			c0-16.3,0-32.6,0-49c-6.2,0-12.3,0-18.4,0c0-4.1,0-8,0-12C869.6,630,886.6,630,903.8,630z"/>
		<path class="st0" d="M350.1,629.9c4.8,0,9.5,0,14.3,0c0,16.2,0,32.5,0,48.8c8.6,0,17.1,0,25.7,0c0,4.1,0,8.1,0,12.2
			c-13.3,0-26.6,0-40,0C350.1,670.7,350.1,650.4,350.1,629.9z"/>
	</g>
	<polygon class="st1" points="719.9,7 530,196.9 340.1,7 102.2,244.8 102.2,325.3 340.1,87.5 530,277.4 719.9,87.5 966.8,334.3 
		966.8,253.8 	"/>
	<polygon class="st2" points="719.9,105.5 530,295.4 340.1,105.5 102.2,343.3 102.2,423.8 340.1,185.9 530,375.9 719.9,185.9 
		966.8,432.8 966.8,352.3 	"/>
	<polygon class="st0" points="719.9,203.9 530,393.8 340.1,203.9 102.2,441.8 102.2,522.2 340.1,284.4 530,474.3 719.9,284.4 
		966.8,531.2 966.8,450.8 	"/>
</g>
</svg>
