<svg id="Layer_1" data-name="Layer 1" xmlns="http://www.w3.org/2000/svg" viewBox="0 0 512 512"><defs><style>.cls-1,.cls-2{fill:#fff;}.cls-2{font-size:40.91px;font-family:TheBoldFont, The Bold Font;}</style></defs><path class="cls-1" d="M300.23,352.06A10.79,10.79,0,0,0,289,363.21a11.36,11.36,0,0,0,11.08,11.46,11.58,11.58,0,0,0,11.53-11.51A11.2,11.2,0,0,0,300.23,352.06Z"/><path class="cls-1" d="M272.31,141.88c-2.61-6.51-4.07-7.12-10.67-4.48q-25.11,10-50.19,20.14c-13.41,5.38-26.84,10.71-40.22,16.15-4.73,1.92-5.52,3.93-3.83,8.7.25.7.53,1.39.81,2.07Q192.59,245.12,217,305.77q9,22.51,18.05,45c1,2.48,2.07,4.86,5.29,4.76a13.94,13.94,0,0,0,5.39-1.46l88.68-35.62c6.58-2.64,7.22-4,4.58-10.6Q305.65,224.88,272.31,141.88Z"/><path class="cls-1" d="M443.5,81H68.5A37.51,37.51,0,0,0,31,118.5v275A37.51,37.51,0,0,0,68.5,431h375A37.51,37.51,0,0,0,481,393.5v-275A37.51,37.51,0,0,0,443.5,81ZM88.71,187.61c-3.48,1.18-6-.37-7.92-3.15-.35-.5-.68-1-1-1.54v-17.8c2-10.49,5-20.63,10.73-29.77q19.88-31.41,56.76-36a7,7,0,0,1,8,5.59c.69,3.34-1.5,6.76-5.27,7.8-2.25.63-4.61.82-6.91,1.29a61.71,61.71,0,0,0-49.72,61.25c0,1.73,0,3.46,0,5.19C93.44,183.88,92.1,186.46,88.71,187.61Zm31.21-13.18a41.35,41.35,0,0,1-.27,5.9c-.6,3.65-3.21,5.9-6.51,5.94a6.67,6.67,0,0,1-6.87-5.55,37.74,37.74,0,0,1-.63-4.38c.13-26.17,19-47.79,43.84-51.31,5.5-.78,9.6,1.93,9.73,6.43.11,3.51-2.29,6.23-6.72,7.11-6,1.18-11.74,2.8-16.77,6.43C125.66,152.25,120.17,161.92,119.92,174.43ZM225,396.18q-44.19-110-88.33-220c-5-12.49-.85-22.56,11.65-27.61q56.85-23,113.79-45.71c2.89-1.16,5.85-2,7.72-1.93,9.52,0,16,4.63,19.53,13.25,4.85,11.89,9.59,23.83,14.37,35.74q37,92.13,74,184.25c5.28,13.15,1.22,23-12,28.33Q309.08,385.39,252.29,408C240.13,412.9,229.94,408.41,225,396.18Zm134-13c-1.49-4.17.82-7.65,6.71-9.57a36.38,36.38,0,0,0,23.12-20.88,34.84,34.84,0,0,0,2.58-19.52,34.79,34.79,0,0,1-.43-4.77c-.05-3.87,1.85-6.44,5.1-7.1a6.77,6.77,0,0,1,8.08,4.82,31.71,31.71,0,0,1,1.41,11.37c0,23.2-14.07,42.51-35.36,49.21C364.35,388.55,360.52,387.34,359,383.15Zm35,21.45a95.4,95.4,0,0,1-20.58,8.15H372c-3.46-1.38-6.2-3.52-5.79-7.61s3.39-5.65,6.95-6.75c24.43-7.52,39-24.09,44.3-48.9,1.69-7.94,1.07-15.94-.48-23.89-1.07-5.48.81-8.91,5.1-9.83,4-.86,7.22,1.92,8.45,7.32C437.65,354.47,422.16,388.94,394,404.6Z"/><text class="cls-2" transform="matrix(0.84, -0.54, 0.54, 0.84, 233.74, 279.44)">CFA</text></svg>