<svg id="Layer_1" data-name="Layer 1" xmlns="http://www.w3.org/2000/svg" viewBox="0 0 512 512"><defs><style>.cls-1,.cls-2{fill:#fff;}.cls-2{fill-rule:evenodd;}</style></defs><path class="cls-1" d="M426.77,257.78v-53.7a46.71,46.71,0,0,0-46.59-46.59H103.49A46.71,46.71,0,0,0,56.9,204.08v180a46.71,46.71,0,0,0,46.59,46.59H380.18a46.71,46.71,0,0,0,46.59-46.59V330.39H357.31a17,17,0,0,1-16.94-16.95V274.72a17,17,0,0,1,16.94-16.94Z"/><path class="cls-2" d="M56.9,179.27v-1.78a48,48,0,0,1,14.44-34.61c9.63-9.63,22.76-15.44,36-17.88L341.09,82a40.66,40.66,0,0,1,7.39-.7c12,0,22.86,5.29,31.21,13.7a57.34,57.34,0,0,1,15.43,29.72,54.22,54.22,0,0,1,.92,9.76v19.21a52.36,52.36,0,0,0-15.86-2.45h-9V134.51a29.19,29.19,0,0,0-.48-5.27,32.23,32.23,0,0,0-8.62-16.69c-3.62-3.64-8.34-6.33-13.58-6.33a16.64,16.64,0,0,0-2.91.24l-233.71,43c-17,3.12-32.3,3.95-45.68,17.33A53.28,53.28,0,0,0,56.9,179.27Z"/><path class="cls-2" d="M357.31,264h87.07a10.75,10.75,0,0,1,10.72,10.72v38.72a10.75,10.75,0,0,1-10.72,10.72H357.31a10.75,10.75,0,0,1-10.72-10.72V274.72A10.75,10.75,0,0,1,357.31,264Zm63.14,20.36a9.73,9.73,0,1,0,9.73,9.72A9.72,9.72,0,0,0,420.45,284.36Z"/></svg>